/* XPM */
static char *blackhole_preview_rev_1__2__resized[] = {
/* columns rows colors chars-per-pixel */
"110 61 74 1 ",
"  c None",
". c #0C050D",
"X c #0E0611",
"o c #0F0815",
"O c #110713",
"+ c #130816",
"@ c #15091A",
"# c #1A0B1D",
"$ c #160C23",
"% c #1D0D23",
"& c #190F29",
"* c #1B102D",
"= c #1E1131",
"- c #210E26",
"; c #240F29",
": c #221027",
"> c #26112C",
", c #29112F",
"< c #271130",
"1 c #2D1433",
"2 c #241338",
"3 c #2F1538",
"4 c #301537",
"5 c #33163B",
"6 c #35193D",
"7 c #351741",
"8 c #361941",
"9 c #3A1A44",
"0 c #3F1B49",
"q c #431C4C",
"w c #471F54",
"e c #4A1F55",
"r c #462054",
"t c #4A2056",
"y c #4B2158",
"u c #52235E",
"i c #542563",
"p c #592566",
"a c #5D266A",
"s c #572868",
"d c #5C296D",
"f c #5E2A70",
"g c #60296E",
"h c #622C75",
"j c #642E79",
"k c #6B2E7B",
"l c #702F7F",
"z c #68307D",
"x c #712F81",
"c c #6C3182",
"v c #743185",
"b c #74358B",
"n c #7B348C",
"m c #7B3792",
"M c #7C3995",
"N c #7F3A99",
"B c #843896",
"V c #833A9B",
"C c #853BA0",
"Z c #8B3DA3",
"A c #8E3FA9",
"S c #913DA6",
"D c #933EA9",
"F c #983FAD",
"G c #9440AD",
"H c #9641B1",
"J c #9C43B5",
"K c #9E44B8",
"L c #A345BC",
"P c #A647C1",
"I c #AA47C2",
"U c #AE48C6",
"Y c #AF49C9",
"T c #B24ACD",
/* pixels */
"                                                                                                              ",
"                                                                                                              ",
"                                                                                                              ",
"                                                                                                              ",
"                                                                                                              ",
"                                                                                                              ",
"                                               ......                                                         ",
"                                             ..XXOX...                                                        ",
"                                            ..#@-nu;X..                                                       ",
"                                           ...#@;Lg%....                                                      ",
"                                          ..X+X+9Lw......                                                     ",
"                                          ..+9#eLV6......   ........                                          ",
"                                         ...O%OqVq#....................                                       ",
"                                         .....6hb#........+@X...........                                      ",
"                                         ....-BJj#........$$..#---+..+O..                                     ",
"                                         ...>DHh#O$$X......O.XhLLLe.+6:.....                                  ",
"                                         ...,UJiO1%@........OyBKKKbfv3+......                                 ",
"                                         ..X>bViO4#.....X#O@9mcdfffbKw96.....                                 ",
"                                         ..@*@jg@X......+61qMm9Xo=#3bNKV%XXX...                               ",
"                                         ..XXOnJh@.......@kGm3+..XX+1bZCj%@&....                              ",
"                                         ...O1tzVk1.....+rBB9+......X60iVd3@.....                             ",
"                                         ...+5@9ZI0.....%bGjX.@@.......:jZd-X....                             ",
"                                         ......9MV7.X...#bLvX.14........%ZHho....                             ",
"                                ...      ......@6b6%6O..#bu:..++.........,hjO....                             ",
"                               ......     ......:Zz9>$o.#b9............o$.16O>#..                             ",
"                              .....oo.    ......%BGh>*++3d4...........O%*O..X4:..                             ",
"                             ...o..@*o...........#dMz%.5z%oO+++O......15o....XO..                             ",
"                             ..-4..oo.............%1>o.@>o>iSSSh......+#........                              ",
"                             ..#6u-.......................%qlJPZi#.............                               ",
"                             ...4L6..@X..........o.......++O@gMGL9,-....   ...                                ",
"                             ...>m5.@9#.........X*@.....o*73.+sVVmGB@...                                      ",
"                              ..1Ln6X#O.........Xo..O4#..o##..-39bGGn:...                                     ",
"                              ..-bCj6X......O-+...11O1@;e+......OwcFY1...                                     ",
"                              ..o<dVb<%@....@6#.O-kd...eL;........iAD9@..                                     ",
"                               X.X+fPmmeXX...OOX%cLv...eL;........sj1Du...                                    ",
"                                ...;q9ZZfs%.#iddkLk1...0B-........if%Fj$...                                   ",
"                                .....XknjHs6yDcsfb7o...6v#........ih;Fh@....                                  ",
"                                 .....5,;FVbmJ9...$$...9b#........ed3Fs.+X..                                  ",
"                                   ...OOX%%%%-O...XX...7b%........@7mYp#9+..                                  ",
"                                      ....@@...#1O.....7b9#........1CTp.%O..                                  ",
"                                       ..X$@...%3O....:um0#........3VTp.....                                  ",
"                                        ...X...X.....XsBc%.......O.3VTi.....                                  ",
"                                     ................Xgj%.......O6%3CTp.....                                  ",
"                                    ................+rVb$o......X-@#rIp....                                   ",
"                                    ..............-30VGh*O.........#qnq...                                    ",
"                                    ...XX....OO@+@dVVLtX.........X.9L4....                                    ",
"                                    ...@&X..#hcczcmHLq+.........X&OqL1....                                    ",
"                                    ...+@oykvKPLPPPVu+::........X@XqL,....                                    ",
"                                     ....OkFDDDDDFFd..11..........-gI1...                                     ",
"                                     .....O++@+@#2$O...X..........kTL,...                                     ",
"                                     X.....%5O..XOO......... ....XvG6+...                                     ",
"                                      .....#>O.............  .....qu%;#..                                     ",
"                                      XX................     ......o<6-..                                     ",
"                                        ............          ......XOX..                                     ",
"                                                                 ......                                       ",
"                                                                  ....                                        ",
"                                                                                                              ",
"                                                                                                              ",
"                                                                                                              ",
"                                                                                                              ",
"                                                                                                              "
};
