/* XPM */
static char *blackhole_preview_rev_1__2__resized[] = {
/* columns rows colors chars-per-pixel */
"55 30 215 2 ",
"   c None",
".  c #09040A",
"X  c #0A040A",
"o  c #0A040B",
"O  c #0B040B",
"+  c #0A040C",
"@  c #0B040C",
"#  c #0B050C",
"$  c #0B050D",
"%  c #0B050E",
"&  c #0C050C",
"*  c #0C050D",
"=  c #0C050E",
"-  c #0D050E",
";  c #0D050F",
":  c #0D060E",
">  c #0C060F",
",  c #0D060F",
"<  c #0E060F",
"1  c #0D0610",
"2  c #0D0611",
"3  c #0E0610",
"4  c #0F0610",
"5  c #0E0611",
"6  c #0F0611",
"7  c #0F0711",
"8  c #0E0712",
"9  c #0E0713",
"0  c #0F0713",
"q  c #0F0714",
"w  c #0F0715",
"e  c #100611",
"r  c #100711",
"t  c #100612",
"y  c #100712",
"u  c #110712",
"i  c #110713",
"p  c #120714",
"a  c #110814",
"s  c #100815",
"d  c #110815",
"f  c #120814",
"g  c #120815",
"h  c #130815",
"j  c #130816",
"k  c #130916",
"l  c #140916",
"z  c #150817",
"x  c #140917",
"c  c #150917",
"v  c #100818",
"b  c #130918",
"n  c #120919",
"m  c #12091A",
"M  c #150918",
"N  c #140919",
"B  c #160A19",
"V  c #150A1A",
"C  c #160A1A",
"Z  c #170A1A",
"A  c #170A1B",
"S  c #140A1C",
"D  c #160A1C",
"F  c #160B1E",
"G  c #180A1A",
"H  c #180A1B",
"J  c #180B1B",
"K  c #180B1C",
"L  c #190B1D",
"P  c #1A0B1D",
"I  c #190B1E",
"U  c #190B1F",
"Y  c #1A0B1E",
"T  c #1A0C1D",
"R  c #1A0C1E",
"E  c #1B0C1E",
"W  c #1B0C1F",
"Q  c #180B20",
"!  c #1C0C20",
"~  c #1D0C21",
"^  c #1D0D22",
"/  c #1E0D22",
"(  c #1E0E23",
")  c #1D0D24",
"_  c #1F0D24",
"`  c #200E24",
"'  c #200E25",
"]  c #200E26",
"[  c #210F27",
"{  c #220F26",
"}  c #230E28",
"|  c #220F28",
" . c #220F29",
".. c #230F29",
"X. c #24102A",
"o. c #26102B",
"O. c #23102D",
"+. c #23112D",
"@. c #27112E",
"#. c #29112E",
"$. c #28112F",
"%. c #28122F",
"&. c #2A122F",
"*. c #291230",
"=. c #2A1231",
"-. c #291233",
";. c #2A1332",
":. c #2D1334",
">. c #2E1334",
",. c #2A1436",
"<. c #2E1435",
"1. c #2F1435",
"2. c #2F1437",
"3. c #2E1537",
"4. c #311538",
"5. c #301539",
"6. c #321538",
"7. c #321539",
"8. c #32153B",
"9. c #33153B",
"0. c #32163A",
"q. c #33163A",
"w. c #35163C",
"e. c #36163D",
"r. c #37173F",
"t. c #371841",
"y. c #3B1843",
"u. c #391944",
"i. c #3B1A46",
"p. c #3D1A47",
"a. c #3D1B48",
"s. c #3F1A48",
"d. c #3F1B48",
"f. c #3E1C49",
"g. c #3E1C4A",
"h. c #3F1C4E",
"j. c #401B4A",
"k. c #411B4B",
"l. c #401C4A",
"z. c #411D4D",
"x. c #421D4E",
"c. c #421E4E",
"v. c #421E4F",
"b. c #441D4E",
"n. c #441E52",
"m. c #461F53",
"M. c #481E52",
"N. c #481E53",
"B. c #481F54",
"V. c #491F55",
"C. c #4D215A",
"Z. c #4E215A",
"A. c #4F215A",
"S. c #4C225B",
"D. c #4F225B",
"F. c #4F225C",
"G. c #4E235D",
"H. c #50215B",
"J. c #50225D",
"K. c #50235D",
"L. c #51235F",
"P. c #53235F",
"I. c #54235F",
"U. c #51245F",
"Y. c #512561",
"T. c #542564",
"R. c #552564",
"E. c #542664",
"W. c #562665",
"Q. c #552666",
"!. c #582666",
"~. c #582767",
"^. c #582768",
"/. c #5C276A",
"(. c #5D276A",
"). c #582869",
"_. c #58286A",
"`. c #59286A",
"'. c #5E296E",
"]. c #5D2A6F",
"[. c #60286F",
"{. c #622970",
"}. c #632B73",
"|. c #672B76",
" X c #612C75",
".X c #632C77",
"XX c #652C76",
"oX c #662C77",
"OX c #6A2C79",
"+X c #682E7B",
"@X c #692F7C",
"#X c #6B2E7D",
"$X c #692F7F",
"%X c #6A2F7E",
"&X c #6D2E7D",
"*X c #6C2F7E",
"=X c #6F2F80",
"-X c #702F82",
";X c #6C3080",
":X c #6D3081",
">X c #713184",
",X c #743287",
"<X c #783289",
"1X c #7A3690",
"2X c #7C3590",
"3X c #7E3591",
"4X c #7C3691",
"5X c #7D3793",
"6X c #7F3896",
"7X c #843899",
"8X c #873B9F",
"9X c #8B3CA3",
"0X c #8F3DA7",
"qX c #923EA9",
"wX c #933FAD",
/* pixels */
"                                                                                                              ",
"                                                                                                              ",
"                                                                                                              ",
"                                              2 z j =                                                         ",
"                                            , v P.d.* *                                                       ",
"                                          * J &.,X=.o * *   * * *                                             ",
"                                          * g Z.U.3 * * = s = * * # $ *                                       ",
"                                        * O M.4X;.n ; * = w M /.=X4.` f # *                                   ",
"                                        * > L.+X( N * * l H G.;X$X.XXXr.e & *                                 ",
"                                        & 2 ) #Xp.6 * # ` }.).H q U Q.5Xf.m ; *                               ",
"                                        * & E l.6X#.o O x.1X~ M : @ g =.@Xn.3 &                               ",
"                                *         * * C ].t.L + m.F.e J < * # + 2.^.A < *                             ",
"                              * & 5 q     * * o b.@X,.D c._ # & # * - I n x R c #                             ",
"                            # x { d 9 & * * * * t 0.| B [ 1.OX{.P . - K 3 # = =                               ",
"                            * 3 K.o.h y * * * * 0 % # # 0  .V.8XoXw.t #   * *                                 ",
"                              @ R.T.! 4 & * 7 < q b P G U I 6 3.`.9XN.X                                       ",
"                              # O. X~.*.< @ T h @.!.c 6.H.o * X Z %X|.Y @                                     ",
"                                + / B.>XE.$.a.G.*XJ.= <.C.O * * p S.[.h.o *                                   ",
"                                  O 3 <.D.W.'.q.' F + %.v.@ * * r g.-Xk.h *                                   ",
"                                      # 1 S 3 j J $ # 5.Y.f & * o X.0Xs.l *                                   ",
"                                      * = 1 * 3 y @ i _.i.: * * h %.0Xy.. *                                   ",
"                                    * * * * @ X O M z.:XQ # * * x ^ &Xe.X                                     ",
"                                    * 5 0 - ..t.u.;X2X9.1 * * * 2 :.(.i &                                     ",
"                                    * 5 V I.3XqXwX7X7.W < * * * 8 j.{.O *                                     ",
"                                    * * : o.>.} -.] * u = * * & p <XA.@ *                                     ",
"                                      * & y k o @ @ * &       * 6 8.+.l #                                     ",
"                                        * & # * * *           * * # a 6                                       ",
"                                                                                                              ",
"                                                                                                              ",
"                                                                                                              "
};
