/* XPM */
static char *bookpixel_preview_rev_1_resized[] = {
/* columns rows colors chars-per-pixel */
"55 55 166 2 ",
"   c None",
".  c #020302",
"X  c #080502",
"o  c #040A06",
"O  c #0A0B06",
"+  c #050D09",
"@  c #090E0A",
"#  c #130D04",
"$  c #001207",
"%  c #03140A",
"&  c #0B130C",
"*  c #041B0E",
"=  c #0C190F",
"-  c #161307",
";  c #1E1404",
":  c #1B1B0C",
">  c #14160A",
",  c #0D1611",
"<  c #061E10",
"1  c #0B1C10",
"2  c #151917",
"3  c #1E1911",
"4  c #141D1A",
"5  c #221703",
"6  c #251A05",
"7  c #2C1D04",
"8  c #301F04",
"9  c #251E12",
"0  c #03220F",
"q  c #052412",
"w  c #0A2414",
"e  c #042A14",
"r  c #062D18",
"t  c #0B2C19",
"y  c #13251B",
"u  c #033216",
"i  c #05351A",
"p  c #08351C",
"a  c #033B1B",
"s  c #093A1D",
"d  c #2D2206",
"f  c #21210D",
"g  c #2C2109",
"h  c #342307",
"j  c #3C2806",
"k  c #3B2C0A",
"l  c #342B0B",
"z  c #2D2C11",
"x  c #3A2A10",
"c  c #303410",
"v  c #3F3F12",
"b  c #1C2C24",
"n  c #0C3C20",
"m  c #1C3728",
"M  c #232B27",
"N  c #2D2E2F",
"B  c #412904",
"V  c #4B3004",
"C  c #44310D",
"Z  c #4B350B",
"A  c #4A390E",
"S  c #553906",
"D  c #593905",
"F  c #533B0C",
"G  c #403711",
"H  c #453812",
"J  c #4A3912",
"K  c #613E04",
"L  c #03431D",
"P  c #03481F",
"I  c #0D431F",
"U  c #395D1E",
"Y  c #064522",
"T  c #084422",
"R  c #044B22",
"E  c #094A26",
"W  c #0A4E29",
"Q  c #025424",
"!  c #015A27",
"~  c #075428",
"^  c #0A532A",
"/  c #035D2A",
"(  c #0A5B2E",
")  c #0A5E30",
"_  c #03622B",
"`  c #03692F",
"'  c #0B6432",
"]  c #056B32",
"[  c #0B6C36",
"{  c #0C6F38",
"}  c #067235",
"|  c #097237",
" . c #0B7439",
".. c #077939",
"X. c #0A7C3D",
"o. c #5D410C",
"O. c #4E4A14",
"+. c #5F5113",
"@. c #6C4605",
"#. c #6D4A07",
"$. c #624209",
"%. c #684509",
"&. c #774C03",
"*. c #7A4E04",
"=. c #74510E",
"-. c #704F11",
";. c #795511",
":. c #7D5811",
">. c #0C7F40",
",. c #404544",
"<. c #474D4B",
"1. c #56575C",
"2. c #5A5A5D",
"3. c #5B6060",
"4. c #717377",
"5. c #76777A",
"6. c #845607",
"7. c #81570A",
"8. c #835B0F",
"9. c #8B5D0B",
"0. c #8E5A04",
"q. c #835B10",
"w. c #956107",
"e. c #9D680B",
"r. c #9A6304",
"t. c #876213",
"y. c #8A6011",
"u. c #9B6B11",
"i. c #A16A09",
"p. c #AB7108",
"a. c #B77C0F",
"s. c #BA7C0C",
"d. c #B37C14",
"f. c #0A813F",
"g. c #0C8442",
"h. c #0C8C45",
"j. c #0C9047",
"k. c #0D9048",
"l. c #BB8214",
"z. c #C6850E",
"x. c #CB890E",
"c. c #C08211",
"v. c #C68915",
"b. c #CD8D16",
"n. c #D48F11",
"m. c #D69516",
"M. c #DC9715",
"N. c #DD9917",
"B. c #D09018",
"V. c #E39C15",
"C. c #E89E13",
"Z. c #ECA216",
"A. c #EAA118",
"S. c #F5A816",
"D. c #FBAD17",
"F. c #F5A918",
"G. c #FDAE18",
"H. c #FFB118",
"J. c #7B7D81",
"K. c #808084",
"L. c #848588",
"P. c #8A8A8E",
"I. c #8E8E93",
"U. c #929397",
"Y. c #949599",
"T. c #97989B",
/* pixels */
"                                                                                                              ",
"                                                                                                              ",
"                                                                                                              ",
"                                                                                                              ",
"                                                                                                              ",
"                                                                                                              ",
"                                      . . . . . . . . . . . . o W T                                           ",
"                                    o e % .                 o L g.>.(                                         ",
"                                  o u R *                   L ! / | (                                         ",
"                                  * L %                     ~ ] R } X.r                                       ",
"                                o a i @                   i ..E & s } ' w                                     ",
"                              o a L y L.Y.              q ( X.q @ o a ` [                                     ",
"                            * L Q $   Y.        Y.    q Q X.W & & @ + ( [ o                                   ",
"                            0 ! a M                 o L .. .t @ o o + Y  .n                                   ",
"                          % L u 4 I.Y.        Y.    r ]  .w O o o i ( & T X.r                                 ",
"                          % a o   T.        Y.U.  * ]  .q % O ( g.g.( + 1 X.E                                 ",
"                        . e a N U.        Y.Y.P.2 a f.i @ = & ' f.]  .q @ T g.E                               ",
"                        o L m 5.Y.U.U.  Y.Y.U.<.a ..' 1 & = o r ! i ^ t & w  .X.=                             ",
"                      o u L ,.Y.  Y.  Y.Y.U.2.s ! R = & 1 & O % q Y  .< o + ^ h.^                             ",
"                      o L b J.Y.Y.Y.Y.U.U.2.& L Q * o = = O Y g.g.g.( q . o , ' [ w                           ",
"                    % L Q b P.Y.Y.Y.Y.U.2., a ! ! Q Y 1 & * [ k.X...| X.i . X 1 g.E                           ",
"                    * Q Q b I.Y.Y.Y.U.3.n L _ _ ! ] k.[ % p X.X.[ e L } >.s . & ^  .t                         ",
"                    o % o 4 4.J.J.J.2.t Q `  .' s _ g.g.e i } s  .a % R } g.r @ t g.n .                       ",
"                    . . h x x J 9 3 H d s ` { w L / ` g.W s } q ~ ] e L ] h.p & & n  .*                       ",
"                    . . u.z.i.u.5 h c.0.S I } i R _ f.g.* p ] a a ! e L ` j.p & @ + p n o                     ",
"                      . u.m.$.7 o : C h l O u P q a g.E o 1 L / / ! e P f._ & @ q i &  .E                     ",
"                        6 7.d.-.@ @ @ , = % e ~ * o < @ & & % a R i p ) ( % + & p g.' X.' *                   ",
"                          5 i.b.:.C X o C H w R Q q & & , , & o % T X. .& + & & < ) e T g.i                   ",
"                            S e.V.v.S S v.B.F * Q L o & = , X s ( g.) n + o + o . . %  .X.L %                 ",
"                            # 7 7.p.r.z.S.H.N.F L Q q & = @ e X. .i < ^ W % + o q ' ' E ..a o                 ",
"                              + f #.a.D.D.Z.D.N.c P ! e & O R g.q e Q g.k.>.>.[ T g.g.E [ q                   ",
"                              . o 6 -.u.l.n.D.d.; % P Q i q T X.e Q / X.) ^ ) g.) p >.h.R                     ",
"                                . & & h s.D.l.6 . h O.R ] ( i _ e Q _ | q u *  .' . ' ] 0                     ",
"                                  @ + D C.F.:.. $.n.M.v ! >.n a L i Q | Q Q i  .Y o R L o                     ",
"                                    . D n.l.: O 7.C.G.F a } ( % L a q L u * '  .o q L %                       ",
"                                    . 8 w.v.A @ B %.y.h o R X.e o u L a r R | a % L 0 .                       ",
"                                      . @.x.B.J + + + @ @ 0 ` ~ % . % e Q Q u = ~ a o                         ",
"                                      . 5 9.S.m.A 7 > + % . a X.' & & o % % * [ ' o                           ",
"                                        . 6 9.V.Z.A.u.Z F h q / h.' 1 & o % [  .u .                           ",
"                                          . . F q.q.q.B.D.v.l q } h.' * % ' X.Q o                             ",
"                                            o @ + ; K i.Z.H.=.. u | h.] [ X.! r                               ",
"                                            o @ & 6 &.*.l.A.D o % Q X.j.f.! e                                 ",
"                                              . . o O j v.=.O & O 0 Q | ! 0                                   ",
"                                                . @ + &.l.# o 1 z t.U Q e .                                   ",
"                                                  o O @.M.q.> & v M.+.% .                                     ",
"                                                  . . V 0.d.Z . X 5 #                                         ",
"                                                      X O # X . . .                                           ",
"                                                                                                              ",
"                                                                                                              ",
"                                                                                                              ",
"                                                                                                              ",
"                                                                                                              ",
"                                                                                                              ",
"                                                                                                              ",
"                                                                                                              "
};
