/* XPM */
static char *bug_resized[] = {
/* columns rows colors chars-per-pixel */
"40 51 198 2 ",
"   c None",
".  c #0A080F",
"X  c #2B0405",
"o  c #23070A",
"O  c #24080B",
"+  c #29090B",
"@  c #360405",
"#  c #37080A",
"$  c #351416",
"%  c #0B162D",
"&  c #12152C",
"*  c #121427",
"=  c #0A1531",
"-  c #09183B",
";  c #111D3B",
":  c #171B33",
">  c #251627",
",  c #3F333E",
"<  c #3C2626",
"1  c #42090C",
"2  c #4B090B",
"3  c #530303",
"4  c #5C0404",
"5  c #56090C",
"6  c #4D0E11",
"7  c #470F12",
"8  c #5C0E11",
"9  c #500E12",
"0  c #401419",
"q  c #481115",
"w  c #5A1013",
"e  c #571217",
"r  c #650A0D",
"t  c #6B0A0B",
"y  c #730B0D",
"u  c #7B0A0B",
"i  c #780607",
"p  c #650E12",
"a  c #6B0E11",
"s  c #730D10",
"d  c #7B0D10",
"f  c #61181D",
"g  c #671417",
"h  c #751115",
"j  c #7E1113",
"k  c #7B1719",
"l  c #7A191D",
"z  c #5A1920",
"x  c #541B24",
"c  c #601D23",
"v  c #751C21",
"b  c #4D2E2E",
"n  c #412B32",
"m  c #4F3237",
"M  c #6B252B",
"N  c #66282C",
"B  c #75242A",
"V  c #6C353A",
"C  c #7A2D37",
"Z  c #0D1C42",
"A  c #0E2148",
"S  c #19284E",
"D  c #162952",
"F  c #122B5C",
"G  c #1D2D53",
"H  c #0E265A",
"J  c #20325D",
"K  c #122A60",
"L  c #1D3D7B",
"P  c #193775",
"I  c #193366",
"U  c #283A69",
"Y  c #213F79",
"T  c #423E4A",
"R  c #763640",
"E  c #4D434A",
"W  c #7F5E54",
"Q  c #654554",
"!  c #830A0B",
"~  c #8B0B0D",
"^  c #99070A",
"/  c #940B0D",
"(  c #9B0C0D",
")  c #940303",
"_  c #9C0E11",
"`  c #910D11",
"'  c #811112",
"]  c #83171C",
"[  c #8A1517",
"{  c #951013",
"}  c #9B1519",
"|  c #A2090B",
" . c #AB0A0B",
".. c #A70505",
"X. c #BA0B0C",
"o. c #B60B0E",
"O. c #A90D11",
"+. c #A31212",
"@. c #AA1418",
"#. c #B81114",
"$. c #B9161A",
"%. c #A11F27",
"&. c #86292F",
"*. c #8D2527",
"=. c #892F36",
"-. c #9C2E32",
";. c #983035",
":. c #932B2A",
">. c #A42327",
",. c #B3262A",
"<. c #B92120",
"1. c #BD3036",
"2. c #A43138",
"3. c #C1070A",
"4. c #CC0709",
"5. c #C30B0C",
"6. c #C8090A",
"7. c #D5080A",
"8. c #C30F11",
"9. c #C21315",
"0. c #D11315",
"q. c #D7191C",
"w. c #E2070A",
"e. c #EB1316",
"r. c #FF1819",
"t. c #F30708",
"y. c #C51E20",
"u. c #D21F25",
"i. c #ED1E22",
"p. c #C52124",
"a. c #C32529",
"s. c #CB2A2E",
"d. c #C72529",
"f. c #D4292D",
"g. c #D32427",
"h. c #C62F35",
"j. c #D92F33",
"k. c #C53335",
"l. c #C93132",
"z. c #C5393F",
"x. c #EB2A2F",
"c. c #E52326",
"v. c #F62025",
"b. c #EE2F37",
"n. c #F82B30",
"m. c #E9343A",
"M. c #F23339",
"N. c #A2453E",
"B. c #8A3A46",
"V. c #B53D44",
"C. c #D03F48",
"Z. c #E53C40",
"A. c #FF3B41",
"S. c #8E4348",
"D. c #914847",
"F. c #95554A",
"G. c #AD4C52",
"H. c #BE4954",
"J. c #BB525C",
"K. c #B84149",
"L. c #B9615C",
"P. c #B97965",
"I. c #B47C72",
"U. c #CD484C",
"Y. c #D1454B",
"T. c #CB4F58",
"R. c #D04951",
"E. c #CF5C58",
"W. c #D6595F",
"Q. c #E04C47",
"!. c #F24B4F",
"~. c #EE4E50",
"^. c #E2575E",
"/. c #FF575E",
"(. c #F14A5A",
"). c #CF605F",
"_. c #DC5A61",
"`. c #F75A61",
"'. c #C07B6B",
"]. c #D4667A",
"[. c #E76069",
"{. c #F2666E",
"}. c #D0806C",
"|. c #1F3E82",
" X c #264C95",
".X c #244682",
"XX c #2E5FAB",
"oX c #3361B1",
"OX c #3265BA",
"+X c #4A6299",
"@X c #4166AA",
"#X c #3A70C2",
"$X c #547FC8",
"%X c #5A90D9",
"&X c #4E88D7",
"*X c #719DDC",
"=X c #E59783",
"-X c #FF9BA4",
/* pixels */
"                                                          +XU Z =               ",
"                                                        *X@X|.H - - J           ",
"                                                      &X%X&X#X X|.F D G         ",
"                                                       X XOXXX.XoXL D ;         ",
"                                                      K F P H Y oXI D -         ",
"                                                      : = - Z P |.A S ;         ",
"                                                      F.b $ * & & : : *         ",
"                                                x G U E B.V.T v 1 n m           ",
"                                                > F F = F.U.S.k.*.V     -.,.+.  ",
"                                                & % . . < P.P.=X}.F.    W.s.q.p.",
"                                                    O r +.&.P.'.I.      K.s.,.<.",
"                                                    5.7.r.m.).L.            T.k.",
"                                                  6.t.e.n./.-X`.            D.  ",
"                                                '  .w.f K.A.U.G.j.          U.  ",
"                                                [ X.4.-.U.c.k B m.&.      !.Q.  ",
"                                              k 8 t ( n.g.+.( y.M.j.x.  H.!.    ",
"                                                9 ~ 9.c.p r { ;.  c.q.i.R.E.    ",
"                                                  | ` @.X. .*.C     c q.>.      ",
"                                                  / r / 4.+.M 8 c     >.        ",
"                                                  ^ 8.8. .]                     ",
"                                                  7.p.0 p                       ",
"                                                w.v.Y.h =.                      ",
"                                            p 7.e.b.g.~ B.                      ",
"                                            ^ $.0.X.4 # a B Q                   ",
"                                          6.! V 9...4 3 l V.h.(.                ",
"                                          7.Z._.9.) 4 @ l J.[.M.m.              ",
"                                        4.x.{.g. .s X X 4 u &.C.x.g.C           ",
"                                      ! g ^.f.i 6     o @ @ . t 9.0.$.>.        ",
"                                    3.u R k.^ 9 ,         $ 7 8 u | 5.#.{       ",
"                                    6.g.l._ y N                 z a ~   ( y     ",
"                                  3.0.p._ a c                           / ! 5   ",
"                                u X.9.t # z                             d u 4 X ",
"                                O u ( 1                                   e 2 X ",
"                              O.! ! p                                   >.1 o # ",
"                            9.8.( t                                     _ u 6   ",
"                          #.9.' 8                                     [ ~ r     ",
"                      k $ } ( +                                       j y e     ",
"                  d.p.+.t ~                                           q 7       ",
"                k.1.j !                                               a 8       ",
"              N %.u +                                               v s         ",
"            @.[ y r                                                 q 8         ",
"          +.u y                                                     a           ",
"        p ~                                                         s           ",
"      _ s                                                         1 h           ",
"  $.@.                                                            # a a.        ",
"} a.                                                                r } 1.].    ",
"}                                                                               ",
"h.                                                                              ",
"V                                                                               ",
"]                                                                               ",
"                                                                                "
};
