/* XPM */
static char *WhatsApp_Image_2023_01_03_at_20_02_36_preview_rev_1_resized[] = {
/* columns rows colors chars-per-pixel */
"50 50 187 2 ",
"   c None",
".  c #1F0507",
"X  c #070C1A",
"o  c #2B0A0C",
"O  c #240608",
"+  c #3B0A0D",
"@  c #340709",
"#  c #360C13",
"$  c #3E0F15",
"%  c #351115",
"&  c #3A1317",
"*  c #0E142E",
"=  c #0B1833",
"-  c #0E1B3C",
";  c #091534",
":  c #111D3B",
">  c #151D35",
",  c #1C1625",
"<  c #261B24",
"1  c #361A25",
"2  c #1E213F",
"3  c #33232D",
"4  c #2D2730",
"5  c #4E0405",
"6  c #54090B",
"7  c #580608",
"8  c #4A0E11",
"9  c #440E10",
"0  c #5A0E12",
"q  c #520C10",
"w  c #4C1015",
"e  c #591115",
"r  c #591418",
"t  c #640C0E",
"y  c #65070A",
"u  c #730B0D",
"i  c #790A0B",
"p  c #6B0E11",
"a  c #630E12",
"s  c #730E11",
"d  c #7A0D10",
"f  c #6E1317",
"g  c #6B151A",
"h  c #671517",
"j  c #741012",
"k  c #7B1215",
"l  c #72171C",
"z  c #581B21",
"x  c #721C22",
"c  c #5C383C",
"v  c #632126",
"b  c #782626",
"n  c #682C34",
"m  c #772A34",
"M  c #0A1B42",
"N  c #0F234D",
"B  c #14254C",
"V  c #162648",
"C  c #0E2354",
"Z  c #152951",
"A  c #162B55",
"S  c #1A3569",
"D  c #1D3A72",
"F  c #1A3878",
"G  c #793841",
"H  c #27427C",
"J  c #5B4549",
"K  c #714A43",
"L  c #7E4C57",
"P  c #7C6164",
"I  c #850505",
"U  c #830B0C",
"Y  c #8B0A0C",
"T  c #9D0A0B",
"R  c #98090B",
"E  c #830F11",
"W  c #930E11",
"Q  c #9B0E11",
"!  c #841315",
"~  c #8A1113",
"^  c #8B181C",
"/  c #931216",
"(  c #9C1113",
")  c #9B1A1C",
"_  c #9D141A",
"`  c #A20B0D",
"'  c #AC0B0B",
"]  c #AA0608",
"[  c #B40B0D",
"{  c #BC090B",
"}  c #BB070A",
"|  c #AB0D11",
" . c #B90D10",
".. c #A3171A",
"X. c #A81419",
"o. c #B11315",
"O. c #B3161A",
"+. c #B4191A",
"@. c #8D1F23",
"#. c #991F24",
"$. c #A71F24",
"%. c #B11D21",
"&. c #BB1D20",
"*. c #8B2328",
"=. c #96292D",
"-. c #982C2B",
";. c #812D36",
":. c #992C32",
">. c #89333B",
",. c #9C3239",
"<. c #AA2125",
"1. c #BC2226",
"2. c #A82C30",
"3. c #A53135",
"4. c #BE3538",
"5. c #CE0507",
"6. c #C6090C",
"7. c #D30608",
"8. c #DB090B",
"9. c #C60F12",
"0. c #CF0F10",
"q. c #C31315",
"w. c #CB1112",
"e. c #CB181A",
"r. c #D51A1D",
"t. c #D61518",
"y. c #E4070A",
"u. c #F10C0D",
"i. c #E00F13",
"p. c #E0191D",
"a. c #F21315",
"s. c #CD1C21",
"d. c #DD1F22",
"f. c #D71D22",
"g. c #E41F21",
"h. c #F41F23",
"j. c #C4252A",
"k. c #C5282A",
"l. c #D42427",
"z. c #C42933",
"x. c #D92C32",
"c. c #C63235",
"v. c #D63439",
"b. c #ED292F",
"n. c #E72528",
"m. c #EC2D32",
"M. c #E8343E",
"N. c #F03235",
"B. c #904139",
"V. c #BC3D4A",
"C. c #DB3741",
"Z. c #FF3F44",
"A. c #A64249",
"S. c #B84649",
"D. c #BB4B53",
"F. c #BC565B",
"G. c #AE6659",
"H. c #B87A63",
"J. c #C7424C",
"K. c #C4514E",
"L. c #C74C53",
"P. c #D74C57",
"I. c #DA4A4A",
"U. c #F6454A",
"Y. c #E64A51",
"T. c #F34B5C",
"R. c #F35051",
"E. c #F05B60",
"W. c #C46F65",
"Q. c #DA7264",
"!. c #F5656D",
"~. c #FC7178",
"^. c #BE8172",
"/. c #C98976",
"(. c #223F83",
"). c #1F4692",
"_. c #254C97",
"`. c #2C559E",
"'. c #2D58A6",
"]. c #3360AC",
"[. c #5670AA",
"{. c #4669B4",
"}. c #4674C1",
"|. c #5482C8",
" X c #4681D2",
".X c #75A4E3",
"XX c #FF8F96",
/* pixels */
"                                                                                                    ",
"                      : ; B ).[.                                                                    ",
"                    A M C F `.|..X                                                                  ",
"                  V A D _.`.}. X}.{.                                                                ",
"                  : Z D ].D _.).H (.                                                                ",
"                  2 Z S '.D N C M B                                                                 ",
"                  > V M C N * , 4 J                                                                 ",
"                    1 < % & 3 -.K P                                                                 ",
"            X.%.=.    c s 3.L I.c Z S 2 l                                                           ",
"            e.j.L.    B.Q.Q.G.G.< X = = $                                                           ",
"            j.k.L.      /./.H.b p O X                                                               ",
"            J.            W.K.p.a.` }                                                               ",
"            A.            ~.XXZ.h.u.y.                                                              ",
"            S.          v.F.R.U.>.' 8.E                                                             ",
"              R.      :.v.v ..N.A.+.5.( ^                                                           ",
"              R.L.  b.x.N.+./ ..m.d.i t f                                                           ",
"                P.h.r.n.  =.W 6 X.l.[ 7 g                                                           ",
"                2.r.z     m #.[ 9.! `                                                               ",
"                        r e b ' 0.d Y                                                               ",
"                              / T q.[                                                               ",
"                                9 n p.5.                                                            ",
"                                *.%.U.a.y.                                                          ",
"                              G x i r.r.i.T                                                         ",
"                            ;.*.7 @ I 6.<.U '                                                       ",
"                        T.M.Y.D.7 7 I } S.,.5.                                                      ",
"                      M.b.Y.D.@.7 O 7 ] l.!.n.7.                                                    ",
"                    $.r.l.f @ 5 @ O $ j I v.!.+.R                                                   ",
"                x.t.0.[ Y 7 o +         % R v.m 6                                                   ",
"              f.q.Y Y u r               n f T 4.1.6.                                                ",
"            / w.T O &                     v p ( l.w.6.                                              ",
"          g Y ' E z                           q u q.6.                                              ",
"          d i f                                 + W ~ o                                             ",
"          r + + =.                                a U i |                                           ",
"            w u Q                                   p ` q.                                          ",
"              0 Y ^                                   0 ~ q.o.                                      ",
"              r u k                                     # Q ~ & ..                                  ",
"                8 w                                         E i O.k.j.                              ",
"                e p                                             t k 4.2.                            ",
"                  p l                                             + Y *.b                           ",
"                  e w                                               a i Q X.                        ",
"                    k                                                   6 u (                       ",
"                    ~                                                       s a                     ",
"                  C.k a                                                       Q Q                   ",
"                V.s./ _                                                           &.%.              ",
"              P.z.                                                                c.) 0             ",
"                                                                                    1.U             ",
"                                                                                    ,._ [           ",
"                                                                                      E  .          ",
"                                                                                      o.O.          ",
"                                                                                                    "
};
