/* XPM */
static char *exactive_preview_rev_1_resized[] = {
/* columns rows colors chars-per-pixel */
"90 90 184 2 ",
"   c None",
".  c #0F110F",
"X  c #10110F",
"o  c #190F1C",
"O  c #111111",
"+  c #161118",
"@  c #1A111D",
"#  c #1E0E23",
"$  c #1F1223",
"%  c #210F27",
"&  c #240F2A",
"*  c #280F2F",
"=  c #211126",
"-  c #25112B",
";  c #28122F",
":  c #2D0E37",
">  c #2E0F38",
",  c #310C3D",
"<  c #2C1533",
"1  c #2F1338",
"2  c #32133C",
"3  c #35183F",
"4  c #350A42",
"5  c #3F0F4D",
"6  c #361342",
"7  c #381345",
"8  c #3D124B",
"9  c #3E194A",
"0  c #3A1945",
"q  c #40124E",
"w  c #40194D",
"e  c #420D53",
"r  c #470D58",
"t  c #490D5C",
"y  c #441254",
"u  c #461954",
"i  c #471258",
"p  c #481159",
"a  c #4C0661",
"s  c #4F0C63",
"d  c #55056D",
"f  c #58046F",
"g  c #540A6A",
"h  c #580F6E",
"j  c #500B64",
"k  c #4F1361",
"l  c #511463",
"z  c #59116F",
"x  c #56106C",
"c  c #5B0574",
"v  c #5B0A74",
"b  c #5E0978",
"n  c #5F047A",
"m  c #5C1072",
"M  c #62047D",
"N  c #620C7C",
"B  c #650382",
"V  c #690386",
"C  c #670A83",
"Z  c #680A83",
"A  c #6C038A",
"S  c #6E098B",
"D  c #71098F",
"F  c #740295",
"G  c #730892",
"H  c #77009B",
"J  c #7A039D",
"K  c #7A089C",
"L  c #7F119F",
"P  c #7E02A3",
"I  c #7E08A3",
"U  c #8102A6",
"Y  c #820BA6",
"T  c #8502AB",
"R  c #8802AE",
"E  c #850CAB",
"W  c #880DAF",
"Q  c #841DA4",
"!  c #8412A8",
"~  c #8A14AE",
"^  c #8707B1",
"/  c #8C01B4",
"(  c #8C0CB3",
")  c #8F01B8",
"_  c #9300BD",
"`  c #940BBD",
"'  c #8C13B3",
"]  c #8E17B5",
"[  c #9014B6",
"{  c #9018B7",
"}  c #9314BB",
"|  c #951BBC",
" . c #981EBF",
".. c #8A29A9",
"X. c #9036AD",
"o. c #9720BF",
"O. c #9923BE",
"+. c #972DB6",
"@. c #9636B3",
"#. c #9F3FBE",
"$. c #964BAD",
"%. c #984EAF",
"&. c #924DA7",
"*. c #9A4AB2",
"=. c #A154BA",
"-. c #A35EB9",
";. c #996FA6",
":. c #9F6CAD",
">. c #9E73AB",
",. c #AE7FBD",
"<. c #9500C0",
"1. c #9609C1",
"2. c #980EC1",
"3. c #9705C8",
"4. c #9B03CD",
"5. c #9C0BCB",
"6. c #9612C1",
"7. c #9A11C4",
"8. c #9B1BC4",
"9. c #9D14CA",
"0. c #9F1FC9",
"q. c #9E04D1",
"w. c #A21FCC",
"e. c #A106D4",
"r. c #A409D7",
"t. c #A609D9",
"y. c #A706DB",
"u. c #A413D3",
"i. c #A619D4",
"p. c #A819D7",
"a. c #AB15DC",
"s. c #AC1CDB",
"d. c #9C24C3",
"f. c #9F2BC4",
"g. c #9D31C0",
"h. c #A12AC7",
"j. c #A224CA",
"k. c #A32ACA",
"l. c #AE20DD",
"z. c #A722D2",
"x. c #AC30D4",
"c. c #AD03E4",
"v. c #AD09E3",
"b. c #AF04E8",
"n. c #B00CE6",
"m. c #B304ED",
"M. c #B50AED",
"N. c #AF12E2",
"B. c #B012E4",
"V. c #B615EB",
"C. c #B704F1",
"Z. c #BA00F7",
"A. c #BA0BF3",
"S. c #BB00F8",
"D. c #BC19F1",
"F. c #BC2BEC",
"G. c #B721E9",
"H. c #B736E1",
"J. c #BE26F0",
"K. c #A841CA",
"L. c #A74DC3",
"P. c #AF58CB",
"I. c #AC58C8",
"U. c #B15ECC",
"Y. c #B841DF",
"T. c #BC50DF",
"R. c #B361CD",
"E. c #B372C9",
"W. c #BB62D8",
"Q. c #C247EB",
"!. c #C675E0",
"~. c #C77BE1",
"^. c #A78DB0",
"/. c #A983B6",
"(. c #A7A4A8",
"). c #B3A5B8",
"_. c #B382C3",
"`. c #B58AC3",
"'. c #BB89CB",
"]. c #BC9CC6",
"[. c #CD97DF",
"{. c #C3B2C9",
"}. c #CDC1D1",
"|. c #D0C6D3",
/* pixels */
"                                                                                                                                                                                    ",
"                                                                                                                                                                                    ",
"                                                                                                                                                                                    ",
"                                                                                                                                                                                    ",
"                                                                                                                                                                                    ",
"                                                                                                                                                                                    ",
"                                                                                                                                                                                    ",
"                                                                                                                                                                                    ",
"                                                                                                                                                                                    ",
"                                                                            S.                                                                                                      ",
"                                                                                                                                                                                    ",
"                                                                                                                                                                                    ",
"                                                                      Z.Z.                  Z.              Z.Z.                                                                    ",
"                                                                      Z.        S.S.      S.      Z.      Z.                                                                        ",
"                                                  Z.                S.Z.S.Z.S.S.t.5.I P #.P.] v.S.Z.S.                                                                              ",
"                                                  Z.    Z.  S.S.  m.m.m.m.C.M.b.1.Y Y P &.>.~ q.m.A.m.v.                                                                            ",
"                                                  Z.    Z.Z.    C.9.' E 8.k.j.J J J T _ ( Y J H ' x.d.' Y ] v.Z.                                                                    ",
"                                                Z.        S.e.' 9.W U ) ` 2.2.R / ) ) _ _ ) / R ) 7.` ` / K 6.9.( m.S.S.                                                            ",
"                                                S.        v.1.E } T T _ _ _ _ ) R R T U T T R / ) _ <.<._ U ' ' W t.n.b.  S.S.                                                      ",
"                                                  C.Z.r.] { W U _ _ _ _ ) ) R J A n f f f c B F U ) ) _ _ _ _ ) P [ [ } m.    Z.S.                                                  ",
"                                                M.z.` E K ) _ ) _ <.) F x k t t t 7 # % # * y t r t l Z P _ _ _ ) _ E I ( 8.s.Z.                                                    ",
"                                              n.i.d.' T T _ _ _ P S N g 2 - & - - $ X X . + - - - & ; e v Z J R _ <./ T R { d.a.m.                                                  ",
"                                            C.p.O.[ ) _ _ _ ) U M y 6 2 + X O X X O O O O O X X O O X - 6 6 g A R _ <._ ) ( | d.n.C.                                                ",
"                                      Z.Z.  j.d.| ` _ _ _ _ A a 5 $ + + O O O O O O O O O O O O O O O O + + 2 y k E _ <._ _ ` d.d.j.  Z.                                            ",
"                                  Z.      {.g.} ` _ <.) J N l w % + O O O O O O O O O O O X O O O O O O O O @ < u m S R _ _ _ `  .O.j.      Z.                                      ",
"                                  Z.    {.`.O.` _ _ ) J n 8 6 1 O X O O O O O X O O O O O O O O O O O O O O X @ 3 2 t A ^ _ _ _ }  .d.      Z.                                      ",
"                                      |._.~ ) _ _ _ J d , @ O O O O O O O O O O O O O O O O O O O O O O O O O O O O % 5 V R _ _ _ ( ] h.    S.                                      ",
"                                    Z.O.Q U _ _ _ ) b 6 @ O O O O O O O O O O O O O O O O O O O X O O O O O O O O O + = i G _ <._ ^ U Y y.S.                                        ",
"                                  M.B.6.( R _ _ R S l < O O O O O O O O O O O O O X O O O O O X O O O O X O O O O O X @ 9 v K <._ ) R ] u.B.                                        ",
"                                S.M.d.k.8._ _ _ K u w < O O O O O O O O O O O O O O O O O O O O O O O O O O O O O O O @ 0 9 m ) _ <.1.j.f.d.                                        ",
"                                S.c.E ^ _ _ <.P c 8 = O O O O O O O O O O O O O O O O O O O O O O O O O O O O O O O O O + 1 t V / _ _ ` E Y                                         ",
"                            Z.  ~.W.d.` _ _ <.S e - + X O O O O O O O O O X O O O O O O O O O O O O O O O O O O O O O O X @ 2 s U <._ _ } d.h.                                      ",
"                            Z.  '._.h.` _ _ / N 3 O O O O O O O O O O O O O O O O O O O O O O O O O O O O O O O O O O O O X # q J ) <._ 8.d.o.                                      ",
"                              S.3.I R _ _ ) F g 2 O O O O O O O O X O O O O O O O O O O O O O O O O O O O O O O O O O X O X $ 8 B P <._ ) U P c.                                    ",
"                        Z.    S.4.W _ _ _ / h 2 @ X O O O O O O O O O O O O X O O O O O X O O O O O O O X O O O O O O O O X + $ y G <._ ) +./.      Z.                              ",
"                              S.a.| _ _ _ R i - X X O X O O O O O O O O O O O O O O O O O O O O O O O X O O O O O O O O O X X + 1 C <.<.<.f._.H.    Z.                              ",
"                              A.s.d._ _ _ U e % X O O O O O O O O O O O O O O O O O O O O O O O O O O O X O O O O O O O O O O O > B ) _ <.7.k.V.A.S.Z.                              ",
"                        S.S.D.'.%.U _ _ / F e % O O O O X O O O O O O O O O O O O O O X O X O O O O O O O O O O O O O O O O O O > c P <.<./ L /.T.S.Z.                              ",
"                          S.M.=...U _ <.U M 1 @ X O O O O O O O O O O O X O O O O O O O O O O O O O O O O O O O O O O O O O O O $ r F _ <./ I $.x.S.                                ",
"                            m.^ U R _ <.U d o X O O O O O O O O O O O O O O O O O O O O O O O O O O O O O O O O O O O O O O O O X 4 V ) _ / T P 4.Z.                                ",
"                            m.R U ) _ <.U a o O O O O O O O O O O O X O O O O O O O O O O O O O O O O O O O O O O O O O O O O O O , B ) <.) / P P   Z.                              ",
"                      Z.      ;.X._ _ <.J a o O O O O O X O O O O O O O O O O O O O O X O O O O O O O O O O O O O O O O O O O O O , n ) <._ ) P                                     ",
"                      Z.      (.%._ _ _ J a o X O O O O O O O O O O O O O O O O O O O O O O X O O O O O O O O O O O O O O O O O O > M ) _ _ ) P                                     ",
"                            V.^.$.) _ _ U a o X O O O O O O O O O O O O O O O X O O O O O O O O O O O O O O O O O O O O O O O O X , M ) <._ / I     Z.                              ",
"                        Z.S.  ..! R _ <.U d o X O O O O O O O O O O O O O O O O O O O O O O O O O O O O O O O O O O O O O O O O X 4 V ) _ ) Y >.    S.    Z.                        ",
"                              ' U U _ _ T M > o X O O O X O O O O O O O O O O O O O O X O O O O O O O O O O O O O O O O O O O O = r H _ _ / K %.      S.Z.                          ",
"                              { ! U _ _ / F e - O O O O O O O O O O O O O O O O O O O O O O O O O O O O O O O O O O O O O O O O 2 c U _ _ / K ~       Z.S.                          ",
"                            Z.  h.d._ _ _ U e % X O O O O O O O O O O X O O O O O O O O O O O O O O O O O O O O O O O O O O O O : M _ _ _ 2.k.    Z.                                ",
"                      Z.        o.| _ _ _ R i = O O O O O O O O O O X O O O O O O O O O O O O O O O O O O O O O O O O O O O X O 2 Z _ _ <.`  .n.                                    ",
"                      Z.        W ( _ _ _ / h 2 @ O O O O O O O O O O O O O O O O O O O O O O O O O X O O O O O O O O O O O + # y G _ _ _ ) ' b.S.                                  ",
"                                P U R _ _ ) F g 2 O O O O O O O O O O O O O O O O O O X O O O O O O O O O O O O O O O O O X $ 8 M U _ _ ) T ! b.                                    ",
"                              S.u.d.h.2._ _ ) N 2 O O O X O O O O O O O O O O O O O O O O O O O O O O O O O X O O O X O O . $ y K _ <._ 8.I.].G.S.                                  ",
"                              S.a.h.O.` _ <.<.S e = + X O O O O O O O O O O O X O O O O O O X O O O O O O O O O O O O O X $ > s T _ _ _ } K.!.J.                                    ",
"                                    ..` ` _ _ J c 8 - + O O O O O O O O O O O O O O O O O O O O O O X O O O O O O O O O + 1 t V / _ _ ` ( 1.S.                                      ",
"                                    {.P.9._ _ _ K u w < O O O O O O O O O O O O O O O X O O O O O O O O O O O O O O O @ 0 w m ) _ _ 1.k.h.d.                                        ",
"                                  J.  /.*./ _ _ / S p 1 X O O O O X O O O O O O O O O O O O O O O O O O O O O O O O X @ w v K _ _ ) R ' u.B.                                        ",
"                                  S.  ).>.T ) _ _ / N 6 @ O O X O O O O O O O O O O O O O O O O O O O O O O O O O O + % t F _ _ _ R Y X.a.S.                                        ",
"                                    Z.[.`.~ ) _ _ _ J d , @ O X O O O O O O O O O O O O O O O O O O O O O O O O O O % e V R _ _ _ ( @.}.Q.S.                                        ",
"                                        I.O.| ` _ _ ) J v 7 3 1 O X O O O O O O O O O O O O O O O O O O O O X @ 3 3 y V R _ <._ } | g.  D.S.                                        ",
"                                          p.d.| ` _ _ ) J N l 9 - + X O O X O O O O O X O X O O O O O O O O o < u m S U _ _ ` ` 8.j.a.  S.                                          ",
"                                          C.w.d. ._ _ _ _ / N u 5 % O + O O O O O O O O O O O O O O O O + + , e p P ) _ _ _ ` d.d.a.S.Z.                                            ",
"                                            C.i.d.[ ) _ _ _ / U M y 6 2 + X O O O X O O O O O O O X O - 6 6 g S R _ _ _ ) ( | d.B.Z.S.S.                                            ",
"                                          Z.Z.M.i.d.' T T _ _ _ U G Z g 2 < - ; ; = O O X + ; ; ; ; < e N S J R _ <./ P R =.U.N.C.S.                                                ",
"                                          Z.Z.S.M.j.} Y K ) _ _ _ _ / J x p t t t 7 # o $ ; i e t t l Z P _ _ _ _ ` ~ Q ( E.~.Z.S.                                                  ",
"                                                    C.r.' { W U ` _ _ _ ) / R H V n f d f c M A U ) ) ) ) _ _ ) U [ -./.V.A.A.S.                                                    ",
"                                                  Z.Z.m.  v.L.:.| T U <._ _ _ ) / T U P U U R / ) _ _ _ _ P ' ' E y.G.F.S.S.Z.S.                                                    ",
"                                                  Z.Z.S.  S.Y.R.i.W Y ) ` ^ R R R / _ _ _ ) / / R U ` ` / I 5.u.5.m.S.S.S.    S.                                                    ",
"                                              Z.Z.  S.Z.  Z.Z.Z.C.5.' Y  .! F H J P T _ ) U H J H F { } Y ] v.Z.S.                                                                  ",
"                                                        S.Z.Z.Z.  m.b.    y.c.c.` Y U P P I ~ q.c.c.m.m.b.                                                                          ",
"                                                                            S.S.c.e.q.4.q.q.    S.Z.Z.                                                                              ",
"                                                                        S.    Z.Z.S.S.S.S.S.      S.                                                                                ",
"                                                                                      Z.S.S.  Z.Z.      Z.  Z.S.                                                                    ",
"                                                                            Z.Z.                      Z.Z.Z.                                                                        ",
"                                                                            Z.Z.                        Z.Z.                                                                        ",
"                                                                                                                                                                                    ",
"                                                                                                                                                                                    ",
"                                                                                                                                                                                    ",
"                                                                                                                                                                                    ",
"                                                                                                                                                                                    ",
"                                                                                                                                                                                    ",
"                                                                                                                                                                                    ",
"                                                                                                                                                                                    ",
"                                                                                                                                                                                    ",
"                                                                                                                                                                                    ",
"                                                                                                                                                                                    ",
"                                                                                                                                                                                    ",
"                                                                                                                                                                                    ",
"                                                                                                                                                                                    ",
"                                                                                                                                                                                    ",
"                                                                                                                                                                                    "
};
