/* XPM */
static char *blackhole_preview_rev_1__2__resized[] = {
/* columns rows colors chars-per-pixel */
"90 50 73 1 ",
"  c None",
". c #0C050D",
"X c #0E0611",
"o c #0F0815",
"O c #100712",
"+ c #120816",
"@ c #150A1A",
"# c #190B1D",
"$ c #160D23",
"% c #1D0D23",
"& c #1A0E28",
"* c #1E102C",
"= c #210E26",
"- c #250F2A",
"; c #221027",
": c #25112B",
"> c #28112E",
", c #271232",
"< c #2C1333",
"1 c #261338",
"2 c #2E1539",
"3 c #301537",
"4 c #34163C",
"5 c #36183F",
"6 c #301743",
"7 c #371942",
"8 c #3B1A45",
"9 c #3E1C4A",
"0 c #431D4E",
"q c #451E51",
"w c #491F53",
"e c #472055",
"r c #492157",
"t c #4D235C",
"y c #52235E",
"u c #4E2461",
"i c #532564",
"p c #592667",
"a c #5C2769",
"s c #572868",
"d c #5B286C",
"f c #61286E",
"g c #632B74",
"h c #682B77",
"j c #662F7A",
"k c #6C2D7C",
"l c #69307E",
"z c #702F80",
"x c #6E3283",
"c c #743287",
"v c #76358C",
"b c #7A348C",
"n c #7D3693",
"m c #7D3895",
"M c #7F3998",
"N c #823795",
"B c #813997",
"V c #853A9C",
"C c #8A3B9F",
"Z c #873CA1",
"A c #8C3DA4",
"S c #8E3EA8",
"D c #913EA7",
"F c #933FAA",
"G c #9540AE",
"H c #9941AE",
"J c #9742B1",
"K c #9C43B5",
"L c #9E44BA",
"P c #A345BD",
"I c #A747C2",
"U c #AE49C7",
"Y c #AE49C9",
/* pixels */
"                                                                                          ",
"                                                                                          ",
"                                                                                          ",
"                                                                                          ",
"                                                                                          ",
"                                       .....                                              ",
"                                     .++4;+..                                             ",
"                                    .+$%Dp@...                                            ",
"                                   ..@O3D4.....                                           ",
"                                   .#3-DN:.....  ......                                   ",
"                                  ...@>v4X......X..........                               ",
"                                 ....>Vv%......+&...XX......                              ",
"                                 ...,BZ8O$+.....+.@kMn4.%:....                            ",
"                                 ...8Uv%:%.......@iGLLzgt#.....                           ",
"                                 ..o2kc#;@....#%@tniriumbyq.....                          ",
"                                 ..+@,V9O.....#5ani@.@o4xGV4X+O..                         ",
"                                 ...X4nme#....@iGs@.....4fxc2&X...                        ",
"                                 ...#<:nK<....7Zv@.@O...XO<cb<X...                        ",
"                                 .....%ln>OX..8SNOX3+......4Gv#...                        ",
"                          ...     .....:c4<%..8j#X.O.......O<j#XX.                        ",
"                         ......   .....#Cn5&@.9dX........X@$X#O2#.                        ",
"                        ..X.X&+........O4xx2.4t=.XXX.....%<O..X@O.                        ",
"                        .@<O.+...........:5#.%:@0NNb-....+@O......                        ",
"                        .O4d#..................O3fHKb:..... .....                         ",
"                        ..>B%.;@.......X@o....o&;@eMKgp3...   .                           ",
"                        ..>Vq@:@........$X.#@.o::.+ribLb3..                               ",
"                         .-MM9+.....@#O..>@:%:<.....XevIh...                              ",
"                         .X1gV0>@...@<..>v4..ab......XdSg;..                              ",
"                          ..%Nbmr%@.O;;>nF4..pv......XaqfcX..                             ",
"                          ...#%bVvi@5bxcF8X..ed......Xd9fm$...                            ",
"                           ....84hDlmC>;:*o..0s.......i0gbOO..                            ",
"                             ..@O=3><>...X...qdX......%tFc#<XX                            ",
"                               ...+@..o<@....0l:X......tIc+#..                            ",
"                                ..O+..X%....4xg%.......tPc....                            ",
"                               .............tl<......=#tIzO...                            ",
"                              ......X......,cgo......:#3Vb....                            ",
"                             ............>4cSi@....X...<hy...                             ",
"                             ...O...O>>>3xFDq.X......oXkh....                             ",
"                             ..X$@#>eVZAASFq+O.......$+xk....                             ",
"                              ....eHHPPPPP0O::.......X#bh..X                              ",
"                              ....@>>:--6>+.OO.......XkYf...                              ",
"                              .....#>...O........ ...Obk%...                              ",
"                               ....+@X........    ....<,,:..                              ",
"                                ...........        ....o%#..                              ",
"                                                     .....                                ",
"                                                      ...                                 ",
"                                                                                          ",
"                                                                                          ",
"                                                                                          ",
"                                                                                          "
};
