/* XPM */
static char *bookim_resized[] = {
/* columns rows colors chars-per-pixel */
"64 64 206 2 ",
"   c #271F0E",
".  c #2E1A0D",
"X  c #31190D",
"o  c #3A1C0D",
"O  c #2F1911",
"+  c #341C12",
"@  c #3B1C13",
"#  c #3A1F1B",
"$  c #143C1C",
"%  c #1D3B1C",
"&  c #2D2317",
"*  c #332011",
"=  c #392215",
"-  c #3C201C",
";  c #3C1A2E",
":  c #3D1B30",
">  c #193922",
",  c #2F3321",
"<  c #3A2235",
"1  c #3B223C",
"2  c #48160D",
"3  c #431E0E",
"4  c #48190F",
"5  c #421F14",
"6  c #4F1B10",
"7  c #4C1C1A",
"8  c #541D1C",
"9  c #462116",
"0  c #4C2417",
"q  c #4C2817",
"w  c #452319",
"e  c #4C2419",
"r  c #452819",
"t  c #4C2A1C",
"y  c #51251A",
"u  c #59211E",
"i  c #55291A",
"p  c #592E1D",
"a  c #5C301E",
"s  c #6B2D16",
"d  c #69241F",
"f  c #672B18",
"g  c #712E16",
"h  c #6C351D",
"j  c #68391F",
"k  c #70321A",
"l  c #743219",
"z  c #4C1334",
"x  c #4C1A30",
"c  c #661F20",
"v  c #452422",
"b  c #4A2623",
"n  c #442B22",
"m  c #4C2925",
"M  c #492A2A",
"N  c #552A22",
"B  c #522D2E",
"V  c #533423",
"C  c #573425",
"Z  c #5D3925",
"A  c #42263C",
"S  c #592C33",
"D  c #5E2B3A",
"F  c #543735",
"G  c #672522",
"H  c #6D2221",
"J  c #742722",
"K  c #7B2723",
"L  c #633724",
"P  c #6C3923",
"I  c #733D25",
"U  c #793E24",
"Y  c #723C29",
"T  c #612D3B",
"R  c #752432",
"E  c #7A2935",
"W  c #663230",
"Q  c #6A3534",
"!  c #66303A",
"~  c #6E3639",
"^  c #743A38",
"/  c #14441D",
"(  c #174626",
")  c #124B21",
"_  c #155025",
"`  c #1F5536",
"'  c #1F5E3A",
"]  c #23442A",
"[  c #29582B",
"{  c #234933",
"}  c #255C34",
"|  c #215A3B",
" . c #1D652D",
".. c #166E32",
"X. c #186E3B",
"o. c #177237",
"O. c #26662E",
"+. c #226A35",
"@. c #21633D",
"#. c #287238",
"$. c #774027",
"%. c #7E4324",
"&. c #7A4129",
"*. c #3A344C",
"=. c #323860",
"-. c #6E1746",
";. c #6E1847",
":. c #751547",
">. c #731A48",
",. c #442845",
"<. c #422748",
"1. c #432A4B",
"2. c #52314E",
"3. c #4A3B57",
"4. c #573759",
"5. c #6B3141",
"6. c #733544",
"7. c #62355E",
"8. c #573B62",
"9. c #613561",
"0. c #66386A",
"q. c #663975",
"w. c #663976",
"e. c #3A454E",
"r. c #275D42",
"t. c #334652",
"y. c #344E5E",
"u. c #3C4E5C",
"i. c #1B7441",
"p. c #256545",
"a. c #327841",
"s. c #2E7250",
"d. c #3E4270",
"f. c #375B73",
"g. c #3D627B",
"h. c #71575E",
"j. c #4F496E",
"k. c #534263",
"l. c #5A4061",
"z. c #6E4469",
"x. c #635576",
"c. c #4D6477",
"v. c #77636B",
"b. c #7A6571",
"n. c #7C6A70",
"m. c #852726",
"M. c #832A27",
"N. c #862C3E",
"B. c #87303E",
"V. c #834524",
"C. c #854827",
"Z. c #894A27",
"A. c #8D4A2C",
"S. c #924C2C",
"D. c #984F2D",
"F. c #87502C",
"G. c #89542F",
"H. c #9B512F",
"J. c #8E4C32",
"K. c #8C4E3B",
"L. c #944C32",
"P. c #974E36",
"I. c #8A5436",
"U. c #9C5332",
"Y. c #985639",
"T. c #A14F3A",
"R. c #892E41",
"E. c #8B3946",
"W. c #9D3E51",
"Q. c #834241",
"!. c #8A4746",
"~. c #8B4549",
"^. c #945843",
"/. c #934450",
"(. c #9C4655",
"). c #944A56",
"_. c #994F5E",
"`. c #A74358",
"'. c #A04859",
"]. c #B74662",
"[. c #836F75",
"{. c #84747C",
"}. c #2C8749",
"|. c #298557",
" X c #298657",
".X c #5D5984",
"XX c #5F5D8D",
"oX c #764D82",
"OX c #635C86",
"+X c #775285",
"@X c #57728A",
"#X c #517592",
"$X c #68689D",
"%X c #646AA7",
"&X c #877A84",
"*X c #887A84",
"=X c #56839B",
"-X c #938789",
";X c #9A9A9C",
":X c #A08E8F",
">X c #A2969B",
",X c #9B9FA1",
"<X c #A69BA1",
"1X c #9CA0A2",
"2X c #AFA4AA",
"3X c #B3ACB4",
/* pixels */
"U.U.U.U.Y.Y.U.U.U.U.Y.U.U.U.U.U.U.U.U.Y.U.U.Y.U.U.U.U.U.U.U.U.U.U.U.U.U.U.U.Y.U.U.U.U.U.U.U.U.U.U.U.U.U.U.U.U.U.U.U.U.Y.U.U.I P ",
"U.U.U.U.D.D.U.U.U.U.D.H.U.U.U.U.U.U.D.U.U.U.D.U.U.U.U.U.U.U.U.U.U.U.U.U.U.U.U.U.U.H.U.U.U.U.Y.D.U.U.U.U.U.Y.U.U.U.U.D.U.U.U.I P ",
"U.U.C.$.$.$.$.$.$.$.$.$.$.$.$.$.$.$.$.$.$.$.$.$.$.$.$.$.U $.$.U $.$.$.$.$.$.$.$.$.$.$.$.$.$.$.$.$.$.$.$.U $.U U $.$.$.$.$.I j p ",
"U.U.$.P P P P P P P P P P P P P P P Y P P L P P P P P P P P Y Y Y P P P P P P P L P P P P P P P P L P P P P L P L P P $.P P p p ",
"U.U.$.P a a i 0 e e e e r q 0 0 0 e Q Q m w w e q w 0 e 0 i W.`.N.R M.M.H G u y e e e y e e e v q 0 e e e i e e e i Z.D.$.P C p ",
"U.U.$.P a a 0 9 9 0 9 9 9 9 9 9 w 0 W Q v - 9 9 9 9 9 9 0 N `.].R.R M.m.H c 8 7 7 5 9 9 7 w 7 7 w w w w w w e e 9 e S.H.$.P p p ",
"Y.U.$.P a p q w ^ ^ B b w 0 9 9 9 0 W ~ v - 5 7 9 0 9 e E.W.R.R.G N K m.c c 8 7 @ @ d d 4 5 j..X=.*.c.c.j.y.e.{ w i S.H.$.P a p ",
"U.U.$.P a p 0 0 !.~.B M w 9 9 9 9 w Q Q v - w 9 9 9 9 w W.].N.R N 5 m.m.c c 8 7 X o d d 2 @ XX%Xj.=.#X=Xg.f.y.t.n e S.H.$.P a p ",
"U.U.$.P a a 0 w Q.!.B M w w w 7 5 e Q ~ v # w 5 9 9 7 e W.].N.R 8 9 K m.H c 8 7 o X c J 2 7 XX%Xd.=.#X=Xg.f.y.t.& @ Z.H.$.P a a ",
"U.U.$.P a p 0 e Q.!.B M w 0 9 9 5 e Q ~ v # w 9 9 9 y N W.].E R 8 0 K m.H c 8 7 @ @ d d 2 @ XX%Xd.=.#X=Xg.f.y.t.& o A.H.$.P a p ",
"U.U.$.P a p 0 e Q.~.B M w 9 9 9 0 0 Q Q v # 5 9 9 y W.`.R.E u 7 9 7 K m.H c 8 7 o @ d J 2 @ XX%Xd.=.#X=Xg.f.y.t.+ @ A.H.$.P a p ",
"U.U.$.j a a 0 w Q.~.B M w 9 9 9 5 0 W ~ v # 7 w 5 N `.].R.R y 9 9 0 K m.d c 8 7 X @ d d 2 2 XX%Xd.=.#X=Xg.f.y.t.& @ A.H.$.P a p ",
"U.U.$.P a a q 0 Q.~.B M e 9 9 9 9 0 W Q v # 5 7 7 y `.].N.R y 9 9 9 g m.H c 8 7 @ @ d d 2 4 XX%Xd.=.#X=Xg.f.y.t.& o A.H.$.P a p ",
"U.U.$.P a a q i K.!.S B y e y e 7 y Q ^ b w 0 y 0 p `.].B.R u 0 e y m.m.K c u 8 5 @ d J 6 7 OX$Xk.=.@X=Xc.f.u.e.= w Z.H.$.P p p ",
"U.Y.$.P a a M.A.L.P.L.A.A.A.A.A.A.A.L.L.J.A.A.A.A.S.T.T.P.L.L.A.S.A.L.L.L.L.B.D.A.A.S.L.A.A.^.^.K.K.I.^.K.K.K.J.A.A.D.U.$.P a p ",
"U.D.$.P a a J.U.H.P.U.U.P.U.U.U.U.U.U.U.U.P.U.U.P.U.P.H.U.P.H.U.U.U.U.U.P.H.H.H.P.U.H.P.P.U.H.H.H.U.U.H.D.U.U.U.U.Y.D.H.$.P a p ",
"U.U.$.L a a $.$.$.$.&.&.&.&.&.&.&.&.$.$.&.&.&.&.$.$.&.$.&.&.$.$.&.&.Y U &.&.$.$.&.&.U U &.&.&.$.U &.&.&.$.$.&.&.&.&.D.H.I P C p ",
"U.U.$.P a p L P P P P P P P P P P P P P P P P P P P P Y P P P P P P Q P P P P P P P Q P P P P P P P P P P P P P P Y D.H.U P p p ",
"U.U.$.P a p q q i e e q t y t e t e t y y y b y e e i 0 t e e i i e t y t y e i y t y t y t e e e e t e y y y y t i D.H.$.P a p ",
"U.U.$.$.a a 0 0 9 9 9 9 0 5 7 9 5 7 9 9 9 9 9 9 9 9 9 7 w 7 9 9 9 9 0 5 0 5 9 9 9 9 5 0 5 0 9 9 9 9 9 7 9 9 9 9 0 e A.U.$.P a p ",
"Y.D.$.P a p 0 9 9 9 9 9 w w 5 5 9 9 9 9 9 9 9 9 9 9 9 0 9 9 9 9 9 w 5 0 9 9 9 9 9 9 9 9 9 9 9 9 9 9 7 9 9 9 9 9 9 i S.H.$.P a p ",
"U.H.$.P a a 0 9 9 9 9 9 7 7 e 7 9 9 9 9 9 9 9 0 9 9 9 9 9 9 9 7 0 0 0 5 9 7 9 9 0 w 9 w w w 9 9 0 9 w 7 9 9 9 9 9 e S.H.$.P a p ",
"U.U.$.P a p 0 9 9 9 w 7 2.4.1 : w 9 9 9 f f s f 3 o 9 9 9 9 0 w 2.8.,.: 5 w 5 w [ } } } > , w 5 9 0 5 5 9 9 9 9 9 e A.H.$.P a p ",
"U.U.$.j a p q 9 w w w 7 9.w.*.1 v 9 9 9 s g g s 3 o 9 9 9 9 5 0 7.w.<.< v e 7 v  .X.o.X.( > n M t w t y 0 0 w 5 9 y S.H.$.P a p ",
"U.U.$.$.a p q r [  ./ % 8.w.*.1 v 9 9 9 s s g s 3 o X o w 5 9 0 7.w.<.1 -.-.z ; ' o.X.X.) ( *X>Xn.h.).E.! S e 5 9 y A.H.$.P a a ",
"U.U.$.P a p 0 9  .../ $ 8.w.<.1 v 7 9 0 s g g s 3 o . . 5 9 9 9 9.w.<.1 :.:.z ; ' X.X.X.( { ,X3X*Xb._.(.5.T b 7 9 0 S.H.$.j a a ",
"U.Y.$.P a p 0 r #.}.+.| x.oXl.3.b 9 9 0 s g g s 3 o X . 5 9 9 0 0.oX4.3.-.:.z ; ' X.o.X.( > ,X3X*Xb._.(.5.T N 5 9 y S.H.$.P a p ",
"U.D.$.P a p 0 r a.}.@.| x.b.l.4.b 9 9 0 s l g s 3 o X . w 9 9 w z.&X8.3.-.:.z ; ' i.i.i.( { ;X3X*Xb._.(.5.T b 5 9 y S.H.$.P a p ",
"U.U.$.P a p 0 r a.}.@.r.x.+Xl.4.m 9 9 0 U V.V.V.C t * . w 9 9 w z.+Xk.4.;.:.z : s. X|.s.r.r.1X3X*Xb._.(.5.T b 0 9 t Z.H.$.P a p ",
"U.U.$.P a p 9 r a.}.| | x.+Xl.3.b 9 9 0 V.Z.Z.C.$.V * . w 9 9 0 z.oXk.3.>.:.z : s. X X Xp.r.1X3X*Xb._.(.5.T 8 5 9 i S.H.$.P a p ",
"U.Y.$.P a p q r O.o.( ( x.+Xl.4.M 9 9 y V.Z.Z.C.V V & . o 9 9 9 9.w.1.<.-.:.z : s. X|.|.p.p.1X3X&Xb._._.5.T t 9 9 y S.U.$.P p p ",
"U.U.$.j a p q r O.../ $ j.+Xl.4.b 9 9 e %.Z.Z.C.Z V * . w 9 9 0 9.w.<.1 -.:.z : s. X|.|.p.r.1X3X&Xb._.(.5.T e 9 9 y Z.H.$.P a p ",
"U.U.$.P a p 0 r  .../ $ k.q.1.*.w 9 9 0 V.Z.Z.V.Z V * . 9 9 9 e 7.w.<.x ;.:.z : s. X X Xp.p.1X3X*Xb._.(.5.T N 5 5 y S.H.$.P a p ",
"U.U.$.P a p 0 w  .../ > 8.q.,.1 v 0 9 0 %.Z.Z.V.Z V * X 9 9 9 w 9.w.<.1 ;.>.z : s. X X Xp.r.>X3X*Xn._.(.5.T b 7 9 y S.H.$.j a p ",
"U.U.$.j a p 0 r  .../ % 8.w.1.1 v 9 9 0 k l l l 0 * * . @ 9 9 9 4.q.,.1 -.>.z : p.i.i.X.( { >X3X*Xb._.(.! T t 9 9 y S.H.$.P a p ",
"U.U.$.j a p y q O.../ > 4.0.1.A b e 0 0 k l l g 0 3 o * 0 y 0 y 7.q.2.x >.>.z x | #.#.#.] { ;X2X{.n._.(.6.T N 0 y i S.H.$.P a p ",
"U.U.$.$.a a V.S.G.G.F.F.Y.K.L.A.S.S.A.S.S.S.D.D.Z.S.Z.S.S.A.S.A.L.P.L.A.L.L.A.A.G.G.G.G.G.D.Y.^.Y.Y.U.U.P.L.D.S.S.Z.H.H.$.P a p ",
"U.U.$.P a a Z.H.H.H.H.H.H.H.H.H.H.H.H.H.H.H.H.H.H.H.H.H.H.H.H.H.H.H.H.H.H.H.U.U.U.U.U.U.H.U.U.H.H.H.H.H.H.H.H.U.U.H.H.H.$.P a p ",
"U.Y.$.P a a I %.$.%.%.l l %.l V.U %.U l $.%.%.l U %.l %.%.U %.l U U U U U U U U U l U %.%.l U U U U l V.U U U l U %.D.D.$.P a p ",
"U.D.$.P a p h h k h h h h j $.j j P h h h h h h h h h h h h h h h h h h k h h h h h h h h j h h h h j h h h h h h h D.D.$.P a p ",
"U.U.$.P p a h s g s 3 3 0 q O.O.% % q y 0 0 y 0 0 y y y 0 y y 0 e e e 0 0 y 0 y 0 y 0 y y 0 y e 0 0 0 0 y 0 y 0 y i S.H.$.P a a ",
"U.U.$.L a p s s g s 3 o 3 r ..o._ / = 3 9 9 e t w 5 5 9 9 9 9 9 0 0 0 5 9 9 9 9 9 9 9 9 9 9 e y e 0 9 9 9 9 9 9 9 y A.H.$.j a a ",
"U.U.$.j a a s g g s o o 9 r #.}.+.| & . 5 w 4.0.,.< w 9 9 9 9 0 W Q v # 9 9 9 9 9 9 9 9 9 e E./.! T t 7 9 9 9 9 9 y S.H.$.P a p ",
"U.U.$.$.a a s g g s 3 o 9 q a.}.p.} & X 5 7 9.w.1.1 w w 9 9 9 9 W ~ M 5 9 9 9 9 9 9 e t w N /.'.6.T e 9 9 9 9 9 9 y S.H.$.P a p ",
"H.Y.$.$.a a %.V.V.$.a V q r a.}.@.` & X 5 e 0.oX3.1.* X 9 9 9 0 W ~ b # + o 5 9 9 N -X:Xv.h._.'.6.D # o 9 9 9 9 9 y S.H.$.P a p ",
"U.D.$.j a a %.Z.Z.C.Z V q r a.}.@.` & X 5 e z.+Xk.3.* . 5 9 9 9 W ~ v # O . 5 9 9 V <X3X&Xv._.'.6.T + X 3 9 9 9 9 t S.H.$.j a p ",
"U.Y.$.j a a %.Z.Z.C.Z V r r O.o._ / & X 5 e z.+Xk.3.+ . 5 9 9 0 W ~ v # O . o 7 9 B >X3X&Xb._.(.6.D @ O 9 9 9 9 9 y S.U.$.P a p ",
"U.H.%.j a p %.Z.Z.C.Z V q r ..o./ $ . X 5 e z.+Xk.3.+ X 5 9 9 9 W Q v # X X 5 5 w C <X3Xn.b._.'.6.D + X 9 9 9 9 9 y Z.D.$.P a p ",
"U.U.$.$.a p %.Z.Z.C.Z V t r  .../ /   . 3 9 0.q.2.*.O X 9 9 9 9 W ~ v # X . = t {.:X-X+XF m /.'.6.D @ X 9 9 9 9 9 0 Z.H.$.P a a ",
"U.U.$.j a a %.V.Z.V.Z a r r ..../ $   . 9 w 9.w.<.: X X 5 9 9 9 W ~ v # X X 5 N ;X3Xn.v.- o ~.'.6.D + X 9 9 9 9 9 i S.H.$.P a p ",
"U.Y.$.L a a k l l l 3 o r q  .../ /   O 9 0 8.w.*.; O . 5 9 5 7 W ~ v # X X = y ;X3X{.v., @ /.(.6.D + X 9 9 9 9 9 y S.H.$.P a p ",
"U.H.$.P a a l l l s q 3 q q O...( % * o 0 y 7.0.,.A @ X 9 y y y Q ^ m w o o 0 N :X2X[.v.m = /.'.6.T 5 o 0 0 y 0 0 i S.H.$.P a p ",
"U.U.$.P p p C.S.D.S.S.S.A.S.G.G.F.F.A.A.A.A.P.P.A.A.A.A.A.A.A.A.S.U.A.A.A.A.A.S.Y.Y.Y.Y.A.A.H.P.P.L.A.A.S.A.A.S.S.A.H.U.$.P a p ",
"U.U.$.P a a A.H.D.H.H.H.H.H.H.H.H.U.H.H.H.U.H.U.H.U.H.U.H.H.H.U.H.H.H.H.H.H.H.H.H.H.H.H.U.U.H.H.H.H.H.H.H.H.H.U.H.H.H.H.$.P a p ",
"U.U.$.j j j P $.l %.$.$.$.$.%.$.U U U U U U U U U U U U U U U U $.U $.I U U $.U $.$.%.$.U U U U $.U U U U U U U I $.I U P P a p ",
"U.U.$.$.$.P P P P P P P P P h j P P P P P P P P P P P P P P P P P P P P P P P P j P j $.P P P P P P P P P P P P P P P P P P a p ",
"U.U.$.P P P P I P I P P P I P P P P P P P P k P P P k I P P P P P I P I k P P P P P P P P P P P P I P P P P P P I P P P P P p p ",
"U.U.$.P P P P P P P P P P k P P P P I h P P P P P P P P P P I P P P P P P P P P P P P I P P I k k P P P I P P I P P P P P P f p ",
"U.U.U P P P P P P P I P P P P P I P P P P P P I P P P P P P P P P P P P P P P P P I P P P P P P P P P P P P P P P k P I P P C p ",
"U.U.U P P P P P P P P P P P P P P P P P P P P P P P P P P P P P P P P P P P P I P P P P P P P P P P P P P P P P P P P P I P p p ",
"U.U.$.P P P I P P P P P I P I P P P I P P P P P I P P P P P P P P P P P P P I P P P P P P P P I I P P P P P P P P P I P P P a p ",
"U.U.$.P P P P P P P P P P P P P P P P P P P P P P P k P P P P P P P P P P P P P P P P P P P P P P P P P P P P P P P P P P P a p ",
"I I Z p p p p j C p N j p j p p a a p C a a a a a a p G a a a a a a f C p C f p a a a a a a C p a f a C a a a a a a C p a a p p ",
"P P a p p p p p p p i p p p p p p p p p p p p p p p p p p p p p a a p p p p p p p p p p p a p p p p p p p p p p p p p p p p p p "
};
