/* XPM */
static char *_9738fa26bee4b2eb8cbd6cb96236823HIBTe8EyiPTdfBRb[] = {
/* columns rows colors chars-per-pixel */
"16 16 2 1 ",
"  c #503625",
". c #755338",
/* pixels */
"............ ...",
"............ ...",
"    .  ....     ",
"................",
"................",
"................",
"..... ..........",
"        .  .... ",
". ..............",
"................",
"................",
"................",
"   ...          ",
"............ ...",
"................",
"................"
};
